<mxfile host="Electron" agent="Mozilla/5.0 (Windows NT 10.0; Win64; x64) AppleWebKit/537.36 (KHTML, like Gecko) draw.io/24.7.17 Chrome/128.0.6613.36 Electron/32.0.1 Safari/537.36" version="24.7.17">
  <diagram id="C5RBs43oDa-KdzZeNtuy" name="Page-1">
    <mxGraphModel dx="1195" dy="697" grid="1" gridSize="10" guides="1" tooltips="1" connect="1" arrows="1" fold="1" page="1" pageScale="1" pageWidth="827" pageHeight="1169" math="0" shadow="0">
      <root>
        <mxCell id="WIyWlLk6GJQsqaUBKTNV-0" />
        <mxCell id="WIyWlLk6GJQsqaUBKTNV-1" parent="WIyWlLk6GJQsqaUBKTNV-0" />
        <mxCell id="JLTXUzJ9eVRDXMHzBW-h-0" value="" style="rounded=0;whiteSpace=wrap;html=1;fillColor=default;strokeColor=none;movable=0;resizable=0;rotatable=0;deletable=0;editable=0;locked=1;connectable=0;" vertex="1" parent="WIyWlLk6GJQsqaUBKTNV-1">
          <mxGeometry width="820" height="710" as="geometry" />
        </mxCell>
        <mxCell id="JLTXUzJ9eVRDXMHzBW-h-1" style="edgeStyle=orthogonalEdgeStyle;rounded=0;orthogonalLoop=1;jettySize=auto;html=1;exitX=0.5;exitY=1;exitDx=0;exitDy=0;entryX=0.5;entryY=0;entryDx=0;entryDy=0;" edge="1" parent="WIyWlLk6GJQsqaUBKTNV-1" source="JLTXUzJ9eVRDXMHzBW-h-2" target="JLTXUzJ9eVRDXMHzBW-h-5">
          <mxGeometry relative="1" as="geometry" />
        </mxCell>
        <mxCell id="JLTXUzJ9eVRDXMHzBW-h-2" value="Process 1" style="rounded=1;whiteSpace=wrap;html=1;fontSize=12;glass=0;strokeWidth=1;shadow=0;" vertex="1" parent="WIyWlLk6GJQsqaUBKTNV-1">
          <mxGeometry x="270" y="75" width="120" height="40" as="geometry" />
        </mxCell>
        <mxCell id="JLTXUzJ9eVRDXMHzBW-h-3" style="edgeStyle=orthogonalEdgeStyle;rounded=0;orthogonalLoop=1;jettySize=auto;html=1;exitX=0.5;exitY=1;exitDx=0;exitDy=0;entryX=0.5;entryY=0;entryDx=0;entryDy=0;" edge="1" parent="WIyWlLk6GJQsqaUBKTNV-1" source="JLTXUzJ9eVRDXMHzBW-h-5" target="JLTXUzJ9eVRDXMHzBW-h-6">
          <mxGeometry relative="1" as="geometry" />
        </mxCell>
        <mxCell id="JLTXUzJ9eVRDXMHzBW-h-4" value="No" style="edgeLabel;html=1;align=center;verticalAlign=middle;resizable=0;points=[];" vertex="1" connectable="0" parent="JLTXUzJ9eVRDXMHzBW-h-3">
          <mxGeometry x="-0.3845" relative="1" as="geometry">
            <mxPoint x="1" as="offset" />
          </mxGeometry>
        </mxCell>
        <mxCell id="JLTXUzJ9eVRDXMHzBW-h-5" value="Data In Caffeine?" style="rhombus;whiteSpace=wrap;html=1;shadow=0;fontFamily=Helvetica;fontSize=12;align=center;strokeWidth=1;spacing=6;spacingTop=-4;" vertex="1" parent="WIyWlLk6GJQsqaUBKTNV-1">
          <mxGeometry x="280" y="165" width="100" height="80" as="geometry" />
        </mxCell>
        <mxCell id="JLTXUzJ9eVRDXMHzBW-h-21" style="edgeStyle=orthogonalEdgeStyle;rounded=0;orthogonalLoop=1;jettySize=auto;html=1;exitX=0.5;exitY=1;exitDx=0;exitDy=0;entryX=0.5;entryY=0;entryDx=0;entryDy=0;" edge="1" parent="WIyWlLk6GJQsqaUBKTNV-1" source="JLTXUzJ9eVRDXMHzBW-h-6" target="JLTXUzJ9eVRDXMHzBW-h-20">
          <mxGeometry relative="1" as="geometry" />
        </mxCell>
        <mxCell id="JLTXUzJ9eVRDXMHzBW-h-24" value="No" style="edgeLabel;html=1;align=center;verticalAlign=middle;resizable=0;points=[];" vertex="1" connectable="0" parent="JLTXUzJ9eVRDXMHzBW-h-21">
          <mxGeometry x="-0.1776" relative="1" as="geometry">
            <mxPoint as="offset" />
          </mxGeometry>
        </mxCell>
        <mxCell id="JLTXUzJ9eVRDXMHzBW-h-6" value="Data In &lt;br&gt;Redis?" style="rhombus;whiteSpace=wrap;html=1;shadow=0;fontFamily=Helvetica;fontSize=12;align=center;strokeWidth=1;spacing=6;spacingTop=-4;" vertex="1" parent="WIyWlLk6GJQsqaUBKTNV-1">
          <mxGeometry x="280" y="285" width="100" height="80" as="geometry" />
        </mxCell>
        <mxCell id="JLTXUzJ9eVRDXMHzBW-h-7" style="edgeStyle=orthogonalEdgeStyle;rounded=0;orthogonalLoop=1;jettySize=auto;html=1;exitX=0.5;exitY=1;exitDx=0;exitDy=0;entryX=0.5;entryY=0;entryDx=0;entryDy=0;" edge="1" parent="WIyWlLk6GJQsqaUBKTNV-1" source="JLTXUzJ9eVRDXMHzBW-h-8" target="JLTXUzJ9eVRDXMHzBW-h-14">
          <mxGeometry relative="1" as="geometry" />
        </mxCell>
        <mxCell id="JLTXUzJ9eVRDXMHzBW-h-8" value="Process 2" style="rounded=1;whiteSpace=wrap;html=1;fontSize=12;glass=0;strokeWidth=1;shadow=0;" vertex="1" parent="WIyWlLk6GJQsqaUBKTNV-1">
          <mxGeometry x="420" y="115" width="120" height="40" as="geometry" />
        </mxCell>
        <mxCell id="JLTXUzJ9eVRDXMHzBW-h-30" style="edgeStyle=orthogonalEdgeStyle;rounded=0;orthogonalLoop=1;jettySize=auto;html=1;exitX=0.5;exitY=0;exitDx=0;exitDy=0;exitPerimeter=0;entryX=0;entryY=0.5;entryDx=0;entryDy=0;" edge="1" parent="WIyWlLk6GJQsqaUBKTNV-1" source="JLTXUzJ9eVRDXMHzBW-h-9" target="JLTXUzJ9eVRDXMHzBW-h-6">
          <mxGeometry relative="1" as="geometry" />
        </mxCell>
        <mxCell id="JLTXUzJ9eVRDXMHzBW-h-33" value="Update Redis" style="edgeLabel;html=1;align=center;verticalAlign=middle;resizable=0;points=[];" vertex="1" connectable="0" parent="JLTXUzJ9eVRDXMHzBW-h-30">
          <mxGeometry x="0.6196" y="1" relative="1" as="geometry">
            <mxPoint x="7" y="1" as="offset" />
          </mxGeometry>
        </mxCell>
        <mxCell id="JLTXUzJ9eVRDXMHzBW-h-32" style="edgeStyle=orthogonalEdgeStyle;rounded=0;orthogonalLoop=1;jettySize=auto;html=1;exitX=0.5;exitY=0;exitDx=0;exitDy=0;exitPerimeter=0;entryX=0;entryY=0.5;entryDx=0;entryDy=0;" edge="1" parent="WIyWlLk6GJQsqaUBKTNV-1" source="JLTXUzJ9eVRDXMHzBW-h-9" target="JLTXUzJ9eVRDXMHzBW-h-5">
          <mxGeometry relative="1" as="geometry" />
        </mxCell>
        <mxCell id="JLTXUzJ9eVRDXMHzBW-h-34" value="Update Caffeine" style="edgeLabel;html=1;align=center;verticalAlign=middle;resizable=0;points=[];" vertex="1" connectable="0" parent="JLTXUzJ9eVRDXMHzBW-h-32">
          <mxGeometry x="0.7156" y="3" relative="1" as="geometry">
            <mxPoint x="7" y="3" as="offset" />
          </mxGeometry>
        </mxCell>
        <mxCell id="JLTXUzJ9eVRDXMHzBW-h-35" style="edgeStyle=orthogonalEdgeStyle;rounded=0;orthogonalLoop=1;jettySize=auto;html=1;exitX=0.5;exitY=0;exitDx=0;exitDy=0;exitPerimeter=0;entryX=0.5;entryY=1;entryDx=0;entryDy=0;" edge="1" parent="WIyWlLk6GJQsqaUBKTNV-1" source="JLTXUzJ9eVRDXMHzBW-h-9" target="JLTXUzJ9eVRDXMHzBW-h-36">
          <mxGeometry relative="1" as="geometry">
            <mxPoint x="164.79310344827582" y="144.9999999999999" as="targetPoint" />
          </mxGeometry>
        </mxCell>
        <mxCell id="JLTXUzJ9eVRDXMHzBW-h-9" value="MySQL" style="shape=cylinder3;whiteSpace=wrap;html=1;boundedLbl=1;backgroundOutline=1;size=15;" vertex="1" parent="WIyWlLk6GJQsqaUBKTNV-1">
          <mxGeometry x="110" y="565" width="109" height="70" as="geometry" />
        </mxCell>
        <mxCell id="JLTXUzJ9eVRDXMHzBW-h-12" style="edgeStyle=orthogonalEdgeStyle;rounded=0;orthogonalLoop=1;jettySize=auto;html=1;exitX=0.5;exitY=1;exitDx=0;exitDy=0;entryX=0.5;entryY=0;entryDx=0;entryDy=0;" edge="1" parent="WIyWlLk6GJQsqaUBKTNV-1" source="JLTXUzJ9eVRDXMHzBW-h-14" target="JLTXUzJ9eVRDXMHzBW-h-17">
          <mxGeometry relative="1" as="geometry" />
        </mxCell>
        <mxCell id="JLTXUzJ9eVRDXMHzBW-h-19" value="No" style="edgeLabel;html=1;align=center;verticalAlign=middle;resizable=0;points=[];" vertex="1" connectable="0" parent="JLTXUzJ9eVRDXMHzBW-h-12">
          <mxGeometry x="-0.2466" relative="1" as="geometry">
            <mxPoint as="offset" />
          </mxGeometry>
        </mxCell>
        <mxCell id="JLTXUzJ9eVRDXMHzBW-h-14" value="Data In Caffeine?" style="rhombus;whiteSpace=wrap;html=1;shadow=0;fontFamily=Helvetica;fontSize=12;align=center;strokeWidth=1;spacing=6;spacingTop=-4;" vertex="1" parent="WIyWlLk6GJQsqaUBKTNV-1">
          <mxGeometry x="430" y="205" width="100" height="80" as="geometry" />
        </mxCell>
        <mxCell id="JLTXUzJ9eVRDXMHzBW-h-23" style="edgeStyle=orthogonalEdgeStyle;rounded=0;orthogonalLoop=1;jettySize=auto;html=1;exitX=0.5;exitY=1;exitDx=0;exitDy=0;entryX=0.5;entryY=0;entryDx=0;entryDy=0;" edge="1" parent="WIyWlLk6GJQsqaUBKTNV-1" source="JLTXUzJ9eVRDXMHzBW-h-17" target="JLTXUzJ9eVRDXMHzBW-h-22">
          <mxGeometry relative="1" as="geometry" />
        </mxCell>
        <mxCell id="JLTXUzJ9eVRDXMHzBW-h-25" value="No" style="edgeLabel;html=1;align=center;verticalAlign=middle;resizable=0;points=[];" vertex="1" connectable="0" parent="JLTXUzJ9eVRDXMHzBW-h-23">
          <mxGeometry x="-0.08" y="-1" relative="1" as="geometry">
            <mxPoint as="offset" />
          </mxGeometry>
        </mxCell>
        <mxCell id="JLTXUzJ9eVRDXMHzBW-h-17" value="Data In &lt;br&gt;Redis?" style="rhombus;whiteSpace=wrap;html=1;shadow=0;fontFamily=Helvetica;fontSize=12;align=center;strokeWidth=1;spacing=6;spacingTop=-4;" vertex="1" parent="WIyWlLk6GJQsqaUBKTNV-1">
          <mxGeometry x="430" y="325" width="100" height="80" as="geometry" />
        </mxCell>
        <mxCell id="JLTXUzJ9eVRDXMHzBW-h-20" value="Lock &lt;br&gt;Obtained?" style="rhombus;whiteSpace=wrap;html=1;shadow=0;fontFamily=Helvetica;fontSize=12;align=center;strokeWidth=1;spacing=6;spacingTop=-4;" vertex="1" parent="WIyWlLk6GJQsqaUBKTNV-1">
          <mxGeometry x="280" y="405" width="100" height="80" as="geometry" />
        </mxCell>
        <mxCell id="JLTXUzJ9eVRDXMHzBW-h-37" style="edgeStyle=orthogonalEdgeStyle;rounded=0;orthogonalLoop=1;jettySize=auto;html=1;exitX=1;exitY=0.5;exitDx=0;exitDy=0;entryX=0.5;entryY=1;entryDx=0;entryDy=0;" edge="1" parent="WIyWlLk6GJQsqaUBKTNV-1" source="JLTXUzJ9eVRDXMHzBW-h-22" target="JLTXUzJ9eVRDXMHzBW-h-39">
          <mxGeometry relative="1" as="geometry">
            <mxPoint x="639.9999999999998" y="194.9999999999999" as="targetPoint" />
          </mxGeometry>
        </mxCell>
        <mxCell id="JLTXUzJ9eVRDXMHzBW-h-38" value="No" style="edgeLabel;html=1;align=center;verticalAlign=middle;resizable=0;points=[];" vertex="1" connectable="0" parent="JLTXUzJ9eVRDXMHzBW-h-37">
          <mxGeometry x="-0.8204" y="-1" relative="1" as="geometry">
            <mxPoint as="offset" />
          </mxGeometry>
        </mxCell>
        <mxCell id="JLTXUzJ9eVRDXMHzBW-h-22" value="Lock &lt;br&gt;Obtained?" style="rhombus;whiteSpace=wrap;html=1;shadow=0;fontFamily=Helvetica;fontSize=12;align=center;strokeWidth=1;spacing=6;spacingTop=-4;" vertex="1" parent="WIyWlLk6GJQsqaUBKTNV-1">
          <mxGeometry x="430" y="455" width="100" height="80" as="geometry" />
        </mxCell>
        <mxCell id="JLTXUzJ9eVRDXMHzBW-h-28" style="edgeStyle=orthogonalEdgeStyle;rounded=0;orthogonalLoop=1;jettySize=auto;html=1;exitX=0.5;exitY=1;exitDx=0;exitDy=0;entryX=1;entryY=0;entryDx=0;entryDy=45;entryPerimeter=0;" edge="1" parent="WIyWlLk6GJQsqaUBKTNV-1" source="JLTXUzJ9eVRDXMHzBW-h-20" target="JLTXUzJ9eVRDXMHzBW-h-9">
          <mxGeometry relative="1" as="geometry" />
        </mxCell>
        <mxCell id="JLTXUzJ9eVRDXMHzBW-h-29" value="Yes, fetch data from DB" style="edgeLabel;html=1;align=center;verticalAlign=middle;resizable=0;points=[];" vertex="1" connectable="0" parent="JLTXUzJ9eVRDXMHzBW-h-28">
          <mxGeometry x="-0.7017" y="1" relative="1" as="geometry">
            <mxPoint as="offset" />
          </mxGeometry>
        </mxCell>
        <mxCell id="JLTXUzJ9eVRDXMHzBW-h-36" value="Release Lock" style="text;html=1;align=center;verticalAlign=middle;whiteSpace=wrap;rounded=0;" vertex="1" parent="WIyWlLk6GJQsqaUBKTNV-1">
          <mxGeometry x="122" y="85" width="85" height="30" as="geometry" />
        </mxCell>
        <mxCell id="JLTXUzJ9eVRDXMHzBW-h-39" value="&quot;Try Again Later&quot;" style="text;html=1;align=center;verticalAlign=middle;whiteSpace=wrap;rounded=0;" vertex="1" parent="WIyWlLk6GJQsqaUBKTNV-1">
          <mxGeometry x="580" y="125" width="130" height="30" as="geometry" />
        </mxCell>
      </root>
    </mxGraphModel>
  </diagram>
</mxfile>
